:SAMPLES-PER-SECOND 30
:FRAME-RANGE 1-1086
:FULLY-SPECIFIED
:DEGREES
306
root  -83.6455 39.1049 -34.3167 -0.966003 -11.7757 3.56548
RightUpLeg  -13.7457 -7.03135 -6.38281
RightLeg  -2.88202 -10.2164 2.56778
RightFoot  11.7315 -1.08239 5.69591
RightToes  -5.8209e-011 0 -3.6325e-017
Spine  6.2845 -1.19238 4.43554
Spine1  2.80483 0.575337 -7.49785
HEad  0.19647 2.24071 -3.72421
LeftShoulder1  1.99239 -2.12505 -29.3412
LeftArm  5.97439 -13.1368 -29.6857
LeftForeArm  -9.74918 -56.1248 -17.7735
LeftHand  0.269834 3.32515 -16.803
RightShoulder  8.3001 13.9928 41.2391
RightArm  -2.46066 5.90395 10.0558
RightForeArm  -21.6277 60.2278 22.056
RightHand  -0.121687 -5.79573 19.7446
LeftUpLeg  0.492183 6.0785 -4.8053
LeftLeg  13.1043 11.012 0.897672
LeftFoot  -13.1701 0.0432193 -2.23969
LeftToes  5.72949e-011 5.22586e-011 2.45399e-011
307
root  -83.9206 39.1343 -33.6108 -0.0816193 -12.5266 2.49942
RightUpLeg  -14.7716 -6.59424 -5.05204
RightLeg  -0.196588 -9.34454 2.44441
RightFoot  10.6209 -0.667214 3.81461
RightToes  -5.8209e-011 0 -3.6325e-017
Spine  5.87586 -0.850846 8.08016
Spine1  2.50149 1.24446 -8.52191
HEad  -0.367108 2.36542 -4.00692
LeftShoulder1  1.98216 -2.02561 -29.7995
LeftArm  5.98793 -12.4255 -29.5329
LeftForeArm  -9.55464 -56.4576 -17.9965
LeftHand  0.255046 3.41812 -16.7716
RightShoulder  8.27911 14.0329 41.0239
RightArm  -2.29062 5.75342 10.0376
RightForeArm  -21.5174 60.2076 22.029
RightHand  -0.109638 -5.72799 19.7899
LeftUpLeg  0.935788 6.87862 -3.6851
LeftLeg  13.2463 10.7632 1.57259
LeftFoot  -13.8593 0.0195081 -2.89204
LeftToes  5.72949e-011 5.22586e-011 2.45399e-011
308
root  -84.219 39.1327 -32.9186 0.857025 -13.4776 1.61865
RightUpLeg  -15.3567 -6.63137 -4.1139
RightLeg  1.63354 -8.47383 2.8765
RightFoot  8.84816 -0.747821 4.54007
RightToes  -5.8209e-011 0 -3.6325e-017
Spine  5.41221 -0.431164 10.8177
Spine1  2.17537 1.84259 -9.07209
HEad  -0.633611 2.87485 -4.33622
LeftShoulder1  1.96677 -1.92876 -30.1594
LeftArm  5.58776 -11.3385 -29.6433
LeftForeArm  -9.14289 -56.678 -18.1245
LeftHand  0.25838 3.40132 -16.8172
RightShoulder  8.31481 14.243 40.6837
RightArm  -1.91818 5.89083 10.0154
RightForeArm  -21.5779 60.1308 21.9599
RightHand  -0.11247 -5.74415 19.7679
LeftUpLeg  0.488006 8.50748 -2.63435
LeftLeg  14.9743 9.95335 2.45394
LeftFoot  -14.4544 -0.0296994 -4.27853
LeftToes  5.72949e-011 5.22586e-011 2.45399e-011
309
root  -84.5759 39.1348 -32.251 1.6105 -13.9139 1.19022
RightUpLeg  -15.843 -6.97613 -3.58494
RightLeg  3.58928 -7.65092 3.25845
RightFoot  6.99346 -0.724235 4.78238
RightToes  -5.8209e-011 0 -3.6325e-017
Spine  5.02771 -0.151085 12.1046
Spine1  1.94043 2.03699 -8.68952
HEad  -0.721339 3.18731 -4.31763
LeftShoulder1  1.93628 -1.82922 -30.2638
LeftArm  5.0372 -10.1473 -29.8932
LeftForeArm  -8.74197 -56.8955 -18.2528
LeftHand  0.269636 3.3368 -16.8949
RightShoulder  8.36902 14.453 40.4485
RightArm  -1.58847 6.21727 9.99207
RightForeArm  -21.5737 60.0917 21.9226
RightHand  -0.130457 -5.83938 19.9201
LeftUpLeg  -1.01574 10.6822 -1.72066
LeftLeg  18.8126 7.92404 3.31577
LeftFoot  -14.41 -0.105822 -7.16359
LeftToes  5.72949e-011 5.22586e-011 2.45399e-011
310
root  -84.9577 39.0837 -31.6404 2.35643 -13.9882 0.819717
RightUpLeg  -16.7063 -7.40938 -3.02166
RightLeg  6.20567 -6.99854 3.52733
RightFoot  4.8227 -0.576349 4.28895
RightToes  -5.8209e-011 0 -3.6325e-017
Spine  4.69147 0.0550974 13.2583
Spine1  1.82152 2.18542 -8.3134
HEad  -0.901983 3.11925 -3.96986
LeftShoulder1  1.9302 -1.82919 -30.1486
LeftArm  4.82207 -9.4965 -30.0158
LeftForeArm  -8.58904 -56.8872 -18.2343
LeftHand  0.286006 3.2295 -16.8848
RightShoulder  8.38952 14.459 40.5417
RightArm  -1.55113 6.50482 9.98097
RightForeArm  -21.498 60.1509 21.9735
RightHand  -0.143001 -5.90707 19.9576
LeftUpLeg  -3.9384 11.3961 -0.55914
LeftLeg  25.152 6.93147 3.87272
LeftFoot  -13.526 -0.127714 -10.9104
LeftToes  5.72949e-011 5.22586e-011 2.45399e-011
311
root  -85.3162 38.9935 -31.0799 2.91216 -13.6517 0.329056
RightUpLeg  -17.2592 -8.13742 -2.51
RightLeg  8.67159 -6.56762 3.99568
RightFoot  2.66378 -0.463746 3.92152
RightToes  -5.8209e-011 0 -3.6325e-017
Spine  4.52005 0.0897942 14.7506
Spine1  1.8947 2.27591 -8.21118
HEad  -1.31002 2.76467 -3.37348
LeftShoulder1  1.93317 -1.85315 -30.0434
LeftArm  4.80494 -9.56766 -29.9705
LeftForeArm  -8.76405 -56.6879 -18.1016
LeftHand  0.314182 3.07547 -17.1103
RightShoulder  8.38338 14.4363 40.5654
RightArm  -1.84773 6.62331 10.1365
RightForeArm  -21.115 60.3174 22.1063
RightHand  -0.143286 -5.91276 19.8256
LeftUpLeg  -7.76392 12.1916 0.770057
LeftLeg  32.8106 5.98436 4.49182
LeftFoot  -10.7038 0.144032 -14.347
LeftToes  5.72949e-011 5.22586e-011 2.45399e-011
312
root  -85.6662 38.879 -30.5624 3.18672 -13.2183 -0.339233
RightUpLeg  -17.3845 -8.72077 -1.88901
RightLeg  10.948 -6.36439 4.40052
RightFoot  0.287711 -0.433162 4.27004
RightToes  -5.8209e-011 0 -3.6325e-017
Spine  4.72188 0.013148 16.301
Spine1  1.91074 2.30322 -8.11133
HEad  -1.67226 2.30379 -2.74602
LeftShoulder1  1.93498 -1.89431 -29.7961
LeftArm  4.66355 -9.77394 -30.0638
LeftForeArm  -8.73123 -56.612 -18.0436
LeftHand  0.312094 3.08869 -17.109
RightShoulder  8.42411 14.5788 40.4282
RightArm  -2.15266 6.74211 10.2878
RightForeArm  -20.9655 60.4563 22.2302
RightHand  -0.154664 -5.97403 19.8682
LeftUpLeg  -11.8286 13.0365 2.21181
LeftLeg  40.4317 5.49595 5.37436
LeftFoot  -5.28304 0.796259 -14.3889
LeftToes  5.72949e-011 5.22586e-011 2.45399e-011
313
root  -85.9741 38.7206 -30.065 3.32159 -12.715 -1.18849
RightUpLeg  -17.5097 -9.12808 -1.08131
RightLeg  13.4808 -6.39412 4.56343
RightFoot  -2.15172 -0.385781 4.61417
RightToes  -5.8209e-011 0 -3.6325e-017
Spine  4.99166 -0.176463 18.0492
Spine1  1.96755 2.25301 -8.05027
HEad  -1.98737 1.86277 -2.2583
LeftShoulder1  1.92433 -1.88961 -29.627
LeftArm  4.51635 -10.1189 -30.1453
LeftForeArm  -8.7976 -56.5174 -17.9801
LeftHand  0.313014 3.0871 -17.1434
RightShoulder  8.52973 14.7597 40.5366
RightArm  -2.28904 7.20167 10.1367
RightForeArm  -21.0878 60.3628 22.1481
RightHand  -0.150983 -5.95582 19.8073
LeftUpLeg  -15.7003 13.1763 3.5037
LeftLeg  47.202 5.05307 6.2316
LeftFoot  0.385097 1.0365 -10.0981
LeftToes  5.72949e-011 5.22586e-011 2.45399e-011
314
root  -86.268 38.622 -29.5556 3.3092 -12.1861 -1.55023
RightUpLeg  -17.341 -9.61845 -0.684906
RightLeg  15.4546 -6.31812 4.61086
RightFoot  -4.06607 -0.313666 4.49495
RightToes  -5.8209e-011 0 -3.6325e-017
Spine  4.85412 -0.319215 18.8762
Spine1  2.40109 2.12071 -7.70141
HEad  -2.19653 1.51768 -1.96777
LeftShoulder1  1.9392 -1.92432 -29.6739
LeftArm  4.3561 -10.577 -30.1271
LeftForeArm  -9.10941 -56.2055 -17.7809
LeftHand  0.315744 3.07207 -17.1627
RightShoulder  8.67075 15.0385 40.5881
RightArm  -2.58115 7.67896 10.0954
RightForeArm  -21.3813 60.0419 21.8621
RightHand  -0.14648 -5.93595 19.655
LeftUpLeg  -18.9598 12.9396 4.02596
LeftLeg  52.1823 4.39249 6.50013
LeftFoot  1.40569 0.911616 -8.22895
LeftToes  5.72949e-011 5.22586e-011 2.45399e-011
315
root  -86.572 38.6724 -29.0136 3.31352 -11.6344 -1.1423
RightUpLeg  -16.5903 -10.1733 -0.999152
RightLeg  15.9804 -6.20413 4.66826
RightFoot  -5.30901 -0.268343 4.40392
RightToes  -5.8209e-011 0 -3.6325e-017
Spine  4.30485 -0.362974 18.4779
Spine1  2.8035 1.92657 -7.35543
HEad  -2.06316 1.20035 -1.7356
LeftShoulder1  1.94637 -1.94369 -29.6789
LeftArm  4.32113 -10.9106 -30.2816
LeftForeArm  -9.33487 -55.7035 -17.4468
LeftHand  0.345394 2.88055 -17.1464
RightShoulder  8.76169 15.1976 40.6698
RightArm  -2.80146 8.07817 10.1529
RightForeArm  -21.6229 59.5734 21.4436
RightHand  -0.128558 -5.83523 19.6925
LeftUpLeg  -21.917 12.5507 3.40292
LeftLeg  55.1085 3.55259 5.94759
LeftFoot  -0.169567 0.727923 -7.42696
LeftToes  5.72949e-011 5.22586e-011 2.45399e-011
316
root  -86.858 38.7526 -28.4639 3.35497 -11.0498 -0.572327
RightUpLeg  -15.6572 -10.7614 -1.51011
RightLeg  16.0242 -6.08142 4.75902
RightFoot  -6.35211 -0.235344 4.40707
RightToes  -5.8209e-011 0 -3.6325e-017
Spine  3.69422 -0.384515 17.9908
Spine1  3.06925 1.75406 -7.25853
HEad  -1.71547 0.761567 -1.63794
LeftShoulder1  1.9576 -1.97007 -29.7126
LeftArm  4.33154 -11.2301 -30.3084
LeftForeArm  -9.65388 -55.2872 -17.1873
LeftHand  0.360503 2.79608 -17.232
RightShoulder  8.7897 15.2351 40.7219
RightArm  -3.02454 8.2147 10.2529
RightForeArm  -21.7386 59.359 21.2571
RightHand  -0.127415 -5.82971 19.6624
LeftUpLeg  -24.5158 11.6583 2.37241
LeftLeg  56.1311 3.36999 5.88796
LeftFoot  -1.23799 0.634993 -7.09465
LeftToes  5.72949e-011 5.22586e-011 2.45399e-011
317
root  -87.1144 38.805 -27.9071 3.30911 -10.4812 -0.0874634
RightUpLeg  -14.6377 -11.4291 -2.03206
RightLeg  16.1791 -5.82256 4.93632
RightFoot  -7.48995 -0.199457 4.41479
RightToes  -5.8209e-011 0 -3.6325e-017
Spine  3.09124 -0.368857 17.8293
Spine1  3.47819 1.70303 -7.48306
HEad  -1.47627 0.211513 -1.60196
LeftShoulder1  1.97152 -2.02128 -29.6323
LeftArm  4.33574 -11.6392 -30.3423
LeftForeArm  -9.77543 -55.1027 -17.0729
LeftHand  0.364935 2.80903 -17.3126
RightShoulder  8.74136 15.1465 40.6889
RightArm  -3.22805 8.15842 10.3195
RightForeArm  -21.608 59.5093 21.3841
RightHand  -0.136283 -5.88082 19.6027
LeftUpLeg  -26.7148 10.9681 1.31641
LeftLeg  55.8457 3.52494 6.06683
LeftFoot  -2.3556 0.545713 -6.76112
LeftToes  5.72949e-011 5.22586e-011 2.45399e-011
318
root  -87.3759 38.8964 -27.3473 3.12456 -9.95306 0.42746
RightUpLeg  -13.1867 -11.9352 -2.63509
RightLeg  15.7818 -5.64586 5.12183
RightFoot  -8.3385 -0.173314 4.44733
RightToes  -5.8209e-011 0 -3.6325e-017
Spine  2.68239 -0.383371 17.2955
Spine1  3.80757 1.59286 -7.54439
HEad  -1.38542 -0.226266 -1.66181
LeftShoulder1  1.96212 -1.98531 -29.6955
LeftArm  4.38673 -11.952 -30.1503
LeftForeArm  -9.66224 -55.2806 -17.1835
LeftHand  0.354096 2.82511 -17.1478
RightShoulder  8.71716 15.1632 40.5262
RightArm  -3.25903 8.06752 10.3823
RightForeArm  -21.5662 59.5909 21.4558
RightHand  -0.139092 -5.88996 19.8152
LeftUpLeg  -28.1925 10.278 0.25006
LeftLeg  53.8758 3.54137 5.66672
LeftFoot  -3.11133 0.500431 -6.69248
LeftToes  5.72949e-011 5.22586e-011 2.45399e-011
319
root  -87.629 38.9917 -26.7863 2.89926 -9.40649 0.800247
RightUpLeg  -11.4278 -12.1907 -3.08676
RightLeg  14.8941 -5.7487 5.22167
RightFoot  -9.00581 -0.155023 4.60006
RightToes  -5.8209e-011 0 -3.6325e-017
Spine  2.31924 -0.409885 16.7099
Spine1  4.08663 1.46174 -7.55803
HEad  -1.23892 -0.547587 -1.8279
LeftShoulder1  1.95254 -1.96087 -29.6797
LeftArm  4.43444 -12.1908 -30.0728
LeftForeArm  -9.66721 -55.3436 -17.2264
LeftHand  0.358347 2.81841 -17.2936
RightShoulder  8.70698 15.1929 40.404
RightArm  -3.216 7.98341 10.4107
RightForeArm  -21.6349 59.6211 21.4881
RightHand  -0.146369 -5.92796 19.8815
LeftUpLeg  -29.1415 9.85965 -0.666022
LeftLeg  50.5903 3.39444 4.85534
LeftFoot  -3.53716 0.500084 -7.01574
LeftToes  5.72949e-011 5.22586e-011 2.45399e-011
